<svg width="19" height="16" viewBox="0 0 19 16" fill="none" xmlns="http://www.w3.org/2000/svg">
<path d="M2.98295 0.431885H16.017C16.7151 0.431839 17.3867 0.698919 17.8941 1.17834C18.4016 1.65775 18.7063 2.31316 18.7458 3.01011L18.75 3.16484V12.8353C18.75 13.5334 18.483 14.205 18.0035 14.7124C17.5241 15.2198 16.8687 15.5245 16.1718 15.564L16.017 15.5682H2.98295C2.28488 15.5683 1.61326 15.3012 1.10585 14.8218C0.598445 14.3424 0.293726 13.687 0.254205 12.99L0.25 12.8353V3.16484C0.249954 2.46677 0.517034 1.79514 0.996451 1.28774C1.47587 0.78033 2.13128 0.475611 2.82823 0.436089L2.98295 0.431885ZM17.4886 5.39745L9.79095 9.40018C9.71639 9.43893 9.63484 9.46238 9.55108 9.46917C9.46732 9.47596 9.38306 9.46594 9.30323 9.4397L9.20905 9.40018L1.51136 5.39745V12.8353C1.51138 13.2046 1.65026 13.5604 1.90044 13.8321C2.15061 14.1038 2.4938 14.2715 2.86186 14.3018L2.98295 14.3069H16.017C16.3865 14.3069 16.7424 14.1679 17.0141 13.9175C17.2858 13.6672 17.4534 13.3238 17.4836 12.9555L17.4886 12.8353V5.39745ZM16.017 1.69325H2.98295C2.61364 1.69326 2.25782 1.83214 1.98615 2.08232C1.71447 2.3325 1.5468 2.67568 1.51641 3.04375L1.51136 3.16484V3.97548L9.5 8.12957L17.4886 3.97548V3.16484C17.4886 2.79539 17.3496 2.43946 17.0993 2.16777C16.8489 1.89607 16.5055 1.72848 16.1373 1.69829L16.017 1.69325Z" fill="#55516D"/>
</svg>
