<svg width="32" height="33" viewBox="0 0 32 33" fill="none" xmlns="http://www.w3.org/2000/svg">
<g clip-path="url(#clip0_14_392)">
<path d="M23.996 24.5H22.6653C22.6653 22.4307 22.7453 22.1333 21.492 21.8427C19.5747 21.4 17.7627 20.9827 17.1013 19.5373C16.8613 19.0093 16.7 18.14 17.308 16.9947C18.6693 14.4227 19.0107 12.2173 18.244 10.944C17.348 9.45733 14.6347 9.45067 13.7307 10.9667C12.9627 12.2573 13.3093 14.4507 14.6813 16.9827C15.3013 18.124 15.1453 18.996 14.9053 19.5267C14.252 20.9787 12.4573 21.3933 10.556 21.8307C9.24667 22.1333 9.32933 22.4107 9.32933 24.5H8.00267L8 23.6693C8 21.9907 8.13333 21.0227 10.1173 20.564C12.36 20.0453 14.576 19.5827 13.5107 17.6187C10.356 11.7987 12.6093 8.5 15.9973 8.5C19.32 8.5 21.6333 11.6773 18.4867 17.6187C17.4533 19.5707 19.5853 20.0347 21.88 20.564C23.8667 21.0227 23.9987 21.9933 23.9987 23.6747L23.996 24.5ZM30.4093 21.548C28.6907 21.1507 27.0907 20.8027 27.8653 19.3387C30.2253 14.8827 28.492 12.5 25.9987 12.5C24.312 12.5 23.0013 13.5893 23.0013 15.6C23.0013 17.292 23.7667 18.5 24.2067 19.5H25.604C25.3773 18.5 23.6493 16.084 24.5827 14.5187C25.132 13.596 26.8547 13.5947 27.4013 14.5027C27.908 15.344 27.6427 16.9187 26.6893 18.7173C26.172 19.6947 26.316 20.452 26.528 20.9147C26.9347 21.8027 27.8307 22.2307 28.844 22.5253C30.8533 23.1133 30.668 22.5813 30.668 24.4987H31.9973L32 23.8813C32 22.6213 31.9013 21.892 30.4093 21.548ZM0.00266667 24.5H1.332C1.332 22.5827 1.14667 23.1147 3.156 22.5267C4.17067 22.232 5.06667 21.804 5.472 20.916C5.684 20.452 5.828 19.696 5.31067 18.7187C4.35733 16.92 4.092 15.3453 4.59867 14.504C5.14533 13.5947 6.868 13.596 7.41733 14.52C8.35067 16.0867 6.62267 18.5013 6.396 19.5013H7.79333C8.23333 18.5013 8.99867 17.2933 8.99867 15.6013C9 13.5893 7.68933 12.5 6.00267 12.5C3.50933 12.5 1.776 14.8827 4.136 19.3387C4.91067 20.804 3.31067 21.1507 1.592 21.548C0.0986667 21.892 0 22.6213 0 23.8827L0.00266667 24.5Z" fill="#84838B"/>
</g>
<defs>
<clipPath id="clip0_14_392">
<rect width="32" height="32" fill="white" transform="translate(0 0.5)"/>
</clipPath>
</defs>
</svg>
