<svg width="17" height="16" viewBox="0 0 17 16" fill="none" xmlns="http://www.w3.org/2000/svg">
<path d="M15.5092 4.57217H12.1413C12.3141 4.46366 12.4779 4.34137 12.631 4.20648C12.862 4.00072 13.048 3.74954 13.1775 3.46865C13.307 3.18775 13.3771 2.88317 13.3836 2.57393C13.3936 2.23375 13.3341 1.89511 13.2087 1.57875C13.0832 1.26238 12.8945 0.974958 12.6541 0.734082C12.4137 0.493205 12.1266 0.303946 11.8105 0.177899C11.4944 0.0518518 11.1558 -0.00833029 10.8156 0.00103923C10.5064 0.00751675 10.2018 0.077694 9.92091 0.207187C9.64001 0.336679 9.38884 0.522705 9.18308 0.753643C8.80496 1.19986 8.5142 1.71325 8.32599 2.26701C8.13818 1.71366 7.84798 1.20056 7.47053 0.75446C7.26466 0.523174 7.01325 0.336878 6.73206 0.207236C6.45086 0.077594 6.14593 0.00739678 5.83636 0.00103923C5.49596 -0.00877796 5.15714 0.0510454 4.84069 0.17684C4.52424 0.302635 4.23682 0.49175 3.99606 0.732586C3.7553 0.973422 3.56627 1.2609 3.44058 1.57739C3.31488 1.89389 3.25517 2.23272 3.26509 2.57312C3.27157 2.88236 3.34175 3.18694 3.47124 3.46783C3.60073 3.74873 3.78676 3.9999 4.0177 4.20566C4.17068 4.34074 4.33449 4.46305 4.50746 4.57135H1.14278C0.992642 4.57135 0.843973 4.60094 0.705271 4.65842C0.566568 4.7159 0.440553 4.80015 0.334425 4.90636C0.228297 5.01256 0.144137 5.13864 0.086755 5.27738C0.0293728 5.41612 -0.000106952 5.56481 2.91553e-07 5.71495V8.32703C2.91553e-07 8.63011 0.1204 8.92078 0.334714 9.1351C0.549027 9.34941 0.839698 9.46981 1.14278 9.46981H1.30604V14.8572C1.30604 15.1603 1.42644 15.451 1.64075 15.6653C1.85506 15.8796 2.14574 16 2.44882 16H14.2032C14.5062 16 14.7969 15.8796 15.0112 15.6653C15.2255 15.451 15.3459 15.1603 15.3459 14.8572V9.46981H15.5092C15.8123 9.46981 16.103 9.34941 16.3173 9.1351C16.5316 8.92078 16.652 8.63011 16.652 8.32703V5.71495C16.652 5.41187 16.5316 5.1212 16.3173 4.90688C16.103 4.69257 15.8123 4.57217 15.5092 4.57217ZM8.96023 3.67427C9.1439 2.68495 9.47367 1.89888 9.91446 1.40095C10.0324 1.27077 10.1759 1.16626 10.336 1.09394C10.4961 1.02162 10.6694 0.983027 10.845 0.980568H10.8899C11.093 0.980591 11.294 1.02135 11.481 1.10044C11.6681 1.17954 11.8374 1.29535 11.9788 1.44102C12.1203 1.5867 12.2312 1.75927 12.3048 1.94854C12.3784 2.13781 12.4133 2.33992 12.4074 2.54292C12.4046 2.71875 12.3656 2.89213 12.2929 3.05223C12.2201 3.21233 12.1152 3.35573 11.9845 3.47347C11.1095 4.24566 9.6255 4.47667 8.84351 4.5436C8.86391 4.3077 8.89738 4.00731 8.96023 3.67427ZM4.68949 1.42544C4.9744 1.14156 5.35988 0.98168 5.76207 0.980568H5.80697C5.9828 0.983338 6.15618 1.02231 6.31628 1.09506C6.47639 1.16781 6.61978 1.27277 6.73752 1.4034C7.50972 2.27844 7.74072 3.76243 7.80766 4.54442C7.57175 4.52401 7.27136 4.48891 6.94159 4.42769C5.95227 4.24566 5.1662 3.91425 4.66827 3.47265C4.53744 3.3552 4.43228 3.212 4.35938 3.05201C4.28648 2.89202 4.24741 2.71871 4.24462 2.54292C4.23899 2.3362 4.27553 2.13051 4.35202 1.93838C4.4285 1.74625 4.54333 1.57172 4.68949 1.42544ZM0.979528 8.32703V5.71495C0.979528 5.67166 0.996728 5.63013 1.02734 5.59952C1.05796 5.5689 1.09949 5.5517 1.14278 5.5517H7.83623V8.49028H1.14278C1.09949 8.49028 1.05796 8.47308 1.02734 8.44247C0.996728 8.41185 0.979528 8.37033 0.979528 8.32703ZM2.28557 14.8572V9.46981H7.83623V15.0205H2.44882C2.40552 15.0205 2.364 15.0033 2.33338 14.9727C2.30277 14.942 2.28557 14.9005 2.28557 14.8572ZM14.3664 14.8572C14.3664 14.9005 14.3492 14.942 14.3186 14.9727C14.288 15.0033 14.2465 15.0205 14.2032 15.0205H8.81575V9.46981H14.3664V14.8572ZM15.6725 8.32703C15.6725 8.37033 15.6553 8.41185 15.6246 8.44247C15.594 8.47308 15.5525 8.49028 15.5092 8.49028H8.81575V5.5517H15.5092C15.5525 5.5517 15.594 5.5689 15.6246 5.59952C15.6553 5.63013 15.6725 5.67166 15.6725 5.71495V8.32703Z" fill="#84838B"/>
</svg>
