<svg width="32" height="32" viewBox="0 0 32 32" fill="none" xmlns="http://www.w3.org/2000/svg">
<g clip-path="url(#clip0_14_383)">
<path d="M5.3335 21.3333L13.3335 12L20.0002 18.6666L26.6668 10.6666" stroke="#84838B" stroke-width="2.66667" stroke-linecap="round" stroke-linejoin="round"/>
<path d="M18.6665 18.6667C18.6665 19.0203 18.807 19.3595 19.057 19.6095C19.3071 19.8596 19.6462 20 19.9998 20C20.3535 20 20.6926 19.8596 20.9426 19.6095C21.1927 19.3595 21.3332 19.0203 21.3332 18.6667C21.3332 18.3131 21.1927 17.9739 20.9426 17.7239C20.6926 17.4739 20.3535 17.3334 19.9998 17.3334C19.6462 17.3334 19.3071 17.4739 19.057 17.7239C18.807 17.9739 18.6665 18.3131 18.6665 18.6667Z" stroke="#84838B" stroke-width="2.66667" stroke-linecap="round" stroke-linejoin="round"/>
<path d="M12 12C12 12.3536 12.1405 12.6927 12.3905 12.9428C12.6406 13.1928 12.9797 13.3333 13.3333 13.3333C13.687 13.3333 14.0261 13.1928 14.2761 12.9428C14.5262 12.6927 14.6667 12.3536 14.6667 12C14.6667 11.6463 14.5262 11.3072 14.2761 11.0572C14.0261 10.8071 13.687 10.6666 13.3333 10.6666C12.9797 10.6666 12.6406 10.8071 12.3905 11.0572C12.1405 11.3072 12 11.6463 12 12Z" stroke="#84838B" stroke-width="2.66667" stroke-linecap="round" stroke-linejoin="round"/>
<path d="M4 21.3333C4 21.687 4.14048 22.0261 4.39052 22.2761C4.64057 22.5262 4.97971 22.6667 5.33333 22.6667C5.68696 22.6667 6.02609 22.5262 6.27614 22.2761C6.52619 22.0261 6.66667 21.687 6.66667 21.3333C6.66667 20.9797 6.52619 20.6406 6.27614 20.3905C6.02609 20.1405 5.68696 20 5.33333 20C4.97971 20 4.64057 20.1405 4.39052 20.3905C4.14048 20.6406 4 20.9797 4 21.3333Z" stroke="#84838B" stroke-width="2.66667" stroke-linecap="round" stroke-linejoin="round"/>
<path d="M25.3335 10.6667C25.3335 11.0203 25.474 11.3595 25.724 11.6095C25.9741 11.8596 26.3132 12 26.6668 12C27.0205 12 27.3596 11.8596 27.6096 11.6095C27.8597 11.3595 28.0002 11.0203 28.0002 10.6667C28.0002 10.3131 27.8597 9.97395 27.6096 9.7239C27.3596 9.47385 27.0205 9.33337 26.6668 9.33337C26.3132 9.33337 25.9741 9.47385 25.724 9.7239C25.474 9.97395 25.3335 10.3131 25.3335 10.6667Z" stroke="#84838B" stroke-width="2.66667" stroke-linecap="round" stroke-linejoin="round"/>
</g>
<defs>
<clipPath id="clip0_14_383">
<rect width="32" height="32" fill="white"/>
</clipPath>
</defs>
</svg>
