<svg width="24" height="24" viewBox="0 0 24 25" fill="none" xmlns="http://www.w3.org/2000/svg">
<g clip-path="url(#clip0_14_396)">
<path d="M20 20.5H16V16.5H20V20.5ZM14 10.5H10V14.5H14V10.5ZM20 10.5H16V14.5H20V10.5ZM8 16.5H4V20.5H8V16.5ZM14 16.5H10V20.5H14V16.5ZM8 10.5H4V14.5H8V10.5ZM24 2.5V24.5H0V2.5H3V3.5C3 4.603 3.897 5.5 5 5.5C6.103 5.5 7 4.603 7 3.5V2.5H17V3.5C17 4.603 17.897 5.5 19 5.5C20.103 5.5 21 4.603 21 3.5V2.5H24ZM22 8.5H2V22.5H22V8.5ZM20 1.5C20 0.948 19.553 0.5 19 0.5C18.447 0.5 18 0.948 18 1.5V3.5C18 4.052 18.447 4.5 19 4.5C19.553 4.5 20 4.052 20 3.5V1.5ZM6 3.5C6 4.052 5.553 4.5 5 4.5C4.447 4.5 4 4.052 4 3.5V1.5C4 0.948 4.447 0.5 5 0.5C5.553 0.5 6 0.948 6 1.5V3.5Z" fill="#84838B"/>
</g>
<defs>
<clipPath id="clip0_14_396">
<rect width="24" height="24" fill="white" transform="translate(0 0.5)"/>
</clipPath>
</defs>
</svg>
