<svg width="24" height="25" viewBox="0 0 24 25" fill="none" xmlns="http://www.w3.org/2000/svg">
<g clip-path="url(#clip0_14_400)">
<path d="M24 14.687V10.313C21.852 9.547 21.274 9.511 20.973 8.784C20.67 8.055 21.056 7.615 22.032 5.561L18.939 2.468C16.913 3.431 16.451 3.832 15.715 3.527C14.988 3.225 14.947 2.638 14.188 0.5H9.813C9.049 2.644 9.013 3.225 8.284 3.527C7.532 3.84 7.081 3.427 5.061 2.468L1.968 5.561C2.945 7.616 3.33 8.054 3.027 8.785C2.725 9.512 2.146 9.549 0 10.313V14.688C2.139 15.448 2.725 15.488 3.027 16.216C3.331 16.95 2.946 17.383 1.968 19.439L5.061 22.532C7.06 21.582 7.531 21.159 8.284 21.473C9.012 21.775 9.048 22.353 9.813 24.5H14.187C14.945 22.369 14.986 21.777 15.724 21.469C16.469 21.161 16.91 21.568 18.939 22.531L22.032 19.438C21.057 17.388 20.67 16.946 20.973 16.215C21.273 15.489 21.853 15.452 24 14.687ZM19.125 15.451C18.548 16.845 19.057 17.909 19.613 19.029L18.529 20.113C17.436 19.57 16.368 19.037 14.956 19.623C13.56 20.204 13.166 21.316 12.768 22.5H11.234C10.836 21.315 10.443 20.203 9.051 19.625C7.632 19.037 6.544 19.58 5.472 20.113L4.389 19.029C4.946 17.911 5.455 16.849 4.876 15.449C4.297 14.058 3.185 13.665 2 13.267V11.734C3.185 11.336 4.297 10.943 4.875 9.55C5.453 8.156 4.943 7.091 4.387 5.971L5.471 4.887C6.553 5.425 7.633 5.964 9.051 5.375C10.443 4.798 10.836 3.685 11.234 2.5H12.768C13.166 3.685 13.56 4.797 14.952 5.375C16.371 5.963 17.458 5.42 18.531 4.887L19.615 5.971C19.059 7.092 18.55 8.158 19.127 9.551C19.704 10.942 20.816 11.335 22.002 11.734V13.268C20.814 13.666 19.7 14.059 19.125 15.451ZM12 9.5C13.654 9.5 15 10.846 15 12.5C15 14.154 13.654 15.5 12 15.5C10.346 15.5 9 14.154 9 12.5C9 10.846 10.346 9.5 12 9.5ZM12 7.5C9.238 7.5 7 9.738 7 12.5C7 15.262 9.238 17.5 12 17.5C14.762 17.5 17 15.262 17 12.5C17 9.738 14.762 7.5 12 7.5Z" fill="#84838B"/>
</g>
<defs>
<clipPath id="clip0_14_400">
<rect width="24" height="24" fill="white" transform="translate(0 0.5)"/>
</clipPath>
</defs>
</svg>
